<svg xmlns="http://www.w3.org/2000/svg" viewBox="0 0 283 64"><path d="M141,16c-11,0-19,7-19,18s9,18,20,18c7,0,13-3,16-7l-7-5c-2,3-6,4-9,4-5,0-9-3-10-7h28V34C160,23,152,16,141,16Zm-9,15a9.29,9.29,0,0,1,18,0ZM249,16c-11,0-19,7-19,18s9,18,20,18c6,0,12-3,16-7l-8-5a9.09,9.09,0,0,1-8,4,12.3,12.3,0,0,1-11-7h28l1-3C268,23,260,16,249,16ZM239,31c2-4,5-7,10-7a8.76,8.76,0,0,1,9,7Zm-39,3c0,6,4,10,10,10a10.5,10.5,0,0,0,9-5l8,5c-3,5-9,8-17,8-11,0-19-7-19-18s8-18,19-18c8,0,14,3,17,8l-8,5a10.5,10.5,0,0,0-9-5C204,24,200,28,200,34ZM283,5V51h-9V5ZM37,0,74,64H0Zm92,5L102,53,74,5H84l18,30L119,5Zm59,12V27l-3-1c-6,0-10,4-10,10V51h-9V17h9v9C175,21,181,17,188,17Z" fill="#fff"/></svg>